<svg width="97" height="94" viewBox="0 0 97 94" fill="none" xmlns="http://www.w3.org/2000/svg">
<mask id="mask0_24_1079" style="mask-type:luminance" maskUnits="userSpaceOnUse" x="2" y="1" width="93" height="91">
<path d="M3.70303 47.6516L55.411 91.0397C56.991 92.3655 59.3503 92.179 60.654 90.6254L93.8379 51.0784C95.1415 49.5247 94.9155 47.1689 93.3355 45.8431L41.6275 2.45495C40.0475 1.1292 37.6882 1.31566 36.3845 2.86929L3.20064 42.4163C1.89698 43.97 2.12306 46.3258 3.70303 47.6516ZM13.6865 41.5877C15.2737 42.9194 15.4985 45.2622 14.1889 46.8229C12.8793 48.3836 10.5331 48.569 8.94597 47.2372C7.35882 45.9055 7.134 43.5627 8.44358 42.002C9.75316 40.4413 12.0994 40.2559 13.6865 41.5877Z" fill="white"/>
</mask>
<g mask="url(#mask0_24_1079)">
<path d="M3.70303 47.6516L55.411 91.0397C56.9976 92.371 59.3449 92.1855 60.654 90.6254L93.8379 51.0784C95.147 49.5183 94.922 47.1744 93.3355 45.8431L41.6275 2.45495C40.041 1.1237 37.6936 1.3092 36.3845 2.86929L3.20064 42.4163C1.89157 43.9764 2.1165 46.3203 3.70303 47.6516Z" fill="#898989"/>
<path opacity="0.35" d="M63.0243 87.8006L60.654 90.6254C59.3503 92.179 56.991 92.3655 55.411 91.0397L3.70303 47.6516C2.12306 46.3258 1.89698 43.97 3.20064 42.4163L5.57092 39.5915L63.0243 87.8006Z" fill="white"/>
<path opacity="0.1" d="M34.0143 5.69425L36.3845 2.86946C37.6882 1.31583 40.0475 1.12937 41.6275 2.45512L93.3355 45.8433C94.9154 47.169 95.1415 49.5249 93.8379 51.0785L91.4676 53.9033L34.0143 5.69425Z" fill="black"/>
<path opacity="0.35" d="M13.6867 41.5877C15.1589 42.823 15.4398 44.924 14.4258 46.4679C14.554 46.3589 14.675 46.2438 14.7817 46.1167C16.0912 44.556 15.8664 42.2132 14.2793 40.8815C12.6921 39.5497 10.3459 39.7351 9.03632 41.2958C8.92374 41.43 8.83736 41.5621 8.75225 41.7073C10.0966 40.4405 12.2145 40.3523 13.6867 41.5877Z" fill="white"/>
<path opacity="0.15" d="M8.94622 47.2378C7.47398 46.0025 7.19313 43.9015 8.20716 42.3576C8.07896 42.4666 7.95793 42.5817 7.85126 42.7088C6.54169 44.2695 6.7665 46.6123 8.35365 47.944C9.9408 49.2758 12.287 49.0904 13.5966 47.5297C13.7092 47.3955 13.7956 47.2634 13.8807 47.1182C12.5363 48.385 10.4185 48.4732 8.94622 47.2378Z" fill="black"/>
<path opacity="0.35" d="M17.4932 39.9691L21.8022 43.5848C22.5955 44.2504 23.7691 44.1577 24.4237 43.3776L43.3859 20.7793C44.0404 19.9993 43.928 18.8273 43.1347 18.1617L38.8257 14.546C38.0324 13.8804 36.8588 13.9732 36.2042 14.7532L17.242 37.3515C16.5875 38.1316 16.6999 39.3035 17.4932 39.9691Z" fill="white"/>
<path opacity="0.05" d="M3.70303 47.6516L55.411 91.0397C56.9976 92.371 59.3449 92.1855 60.654 90.6254L93.8379 51.0784C95.147 49.5183 94.922 47.1744 93.3355 45.8431L41.6275 2.45495C40.041 1.1237 37.6936 1.3092 36.3845 2.86929L3.20064 42.4163C1.89157 43.9764 2.1165 46.3203 3.70303 47.6516Z" fill="url(#paint0_linear_24_1079)"/>
</g>
<defs>
<linearGradient id="paint0_linear_24_1079" x1="29.557" y1="69.3457" x2="67.5763" y2="24.036" gradientUnits="userSpaceOnUse">
<stop stop-color="white"/>
<stop offset="0.5"/>
</linearGradient>
</defs>
</svg>
