<svg width="100" height="92" viewBox="0 0 100 92" fill="none" xmlns="http://www.w3.org/2000/svg">
<mask id="mask0_91_287" style="mask-type:luminance" maskUnits="userSpaceOnUse" x="2" y="3" width="89" height="79">
<path fill-rule="evenodd" clip-rule="evenodd" d="M3.33718 25.1563L22.4883 41.226L20.5599 43.5241C20.2064 43.9454 20.2619 44.5794 20.6832 44.9329L39.0683 60.3599C59.926 77.6005 79.8377 88.0032 88.1618 78.083C96.4859 68.1627 82.8156 50.3216 62.2086 32.7823L43.8235 17.3553C43.4022 17.0018 42.7682 17.0573 42.4147 17.4786L40.4863 19.7767L21.3352 3.70705C20.9139 3.35351 20.2799 3.40898 19.9264 3.8303L3.21393 23.7475C2.86039 24.1688 2.91586 24.8028 3.33718 25.1563ZM77.009 68.0851C78.5654 67.8637 80.0745 67.2632 81.3748 66.3048C81.3748 66.3048 81.3748 66.3048 81.3812 66.2971C81.4877 66.2168 81.6222 66.2122 81.7334 66.2663C81.7411 66.2728 81.7487 66.2792 81.7564 66.2856C81.9953 66.4209 82.2291 66.5779 82.4436 66.7578C84.5502 68.5255 84.8367 71.6378 83.0948 73.7138C81.3528 75.7898 78.2381 76.0481 76.1314 74.2804C75.9016 74.0876 75.6988 73.8782 75.5087 73.6535C75.4934 73.6406 75.4781 73.6277 75.4692 73.6072C75.4042 73.5135 75.3944 73.4008 75.428 73.2985C75.4409 73.2832 75.4537 73.2679 75.4525 73.2538C76.0922 71.8847 76.3815 70.4043 76.3442 68.924C76.3316 68.8612 76.3391 68.5412 76.4998 68.3497C76.6605 68.1582 76.968 68.1029 76.9962 68.1004L77.009 68.0851Z" fill="white"/>
</mask>
<g mask="url(#mask0_91_287)">
<path d="M22.4883 41.2256L3.33717 25.1559C2.91585 24.8024 2.86038 24.1684 3.21391 23.7471L19.9264 3.82991C20.2799 3.40858 20.9139 3.35312 21.3352 3.70665L40.4863 19.7763L22.4883 41.2256Z" fill="#B3B3B3"/>
<path fill-rule="evenodd" clip-rule="evenodd" d="M18.1915 24.566L20.4897 26.4943C20.911 26.8479 20.9665 27.4819 20.6129 27.9032L18.0418 30.9674C17.6882 31.3887 17.0543 31.4441 16.6329 31.0906L14.3348 29.1622C13.9135 28.8087 13.858 28.1747 14.2116 27.7534L16.7827 24.6892C17.1362 24.2679 17.7702 24.2124 18.1915 24.566ZM23.3338 18.4376L25.632 20.366C26.0533 20.7195 26.6873 20.6641 27.0408 20.2427L29.612 17.1786C29.9655 16.7572 29.91 16.1233 29.4887 15.7697L27.1906 13.8414C26.7692 13.4878 26.1353 13.5433 25.7817 13.9646L23.2106 17.0288C22.857 17.4501 22.9125 18.0841 23.3338 18.4376Z" fill="#E6E6E6"/>
<path d="M19.006 29.8184L15.1758 26.6044M20.2916 28.2863L16.4613 25.0723M28.005 19.0937L24.1748 15.8798M29.2906 17.5616L25.4604 14.3477" stroke="#FABE78" stroke-miterlimit="10"/>
<path d="M30.2017 32.0332L29.4357 31.3904C29.0144 31.0369 28.9589 30.4029 29.3124 29.9816L30.598 28.4495C30.9515 28.0282 31.5855 27.9727 32.0068 28.3262L32.7729 28.969L30.2017 32.0332Z" fill="#E6E6E6"/>
<path fill-rule="evenodd" clip-rule="evenodd" d="M39.0683 60.3599C59.926 77.6005 79.8377 88.0032 88.1618 78.083C96.4859 68.1627 82.8156 50.3216 62.2086 32.7823L43.8235 17.3553C43.4022 17.0018 42.7682 17.0573 42.4147 17.4786L20.5599 43.5241C20.2064 43.9454 20.2619 44.5794 20.6832 44.9329L39.0683 60.3599Z" fill="#990011"/>
<path opacity="0.15" fill-rule="evenodd" clip-rule="evenodd" d="M64.5703 65.7813C64.1521 66.7619 64.0209 67.6961 64.787 68.3389C64.8176 68.3646 64.8406 68.3839 64.8777 68.402C64.8777 68.402 72.6115 73.9646 76.4969 75.6192C79.1882 76.7678 81.6036 76.2229 83.2234 74.2925C84.9911 72.1859 84.9662 69.7108 83.3137 67.293C80.586 63.2941 74.2903 57.2933 74.1741 57.1828C73.4081 56.5401 72.6569 56.7974 71.6177 57.4136C71.5703 57.439 69.8495 58.5407 67.6705 61.1376C65.8257 63.3362 64.6101 65.7494 64.5856 65.7941L64.5703 65.7813Z" fill="white"/>
<path opacity="0.15" d="M36.3036 44.9859L57.7528 62.984C58.599 63.694 59.8605 63.5836 60.5705 62.7374L68.2839 53.5449C68.9939 52.6988 68.8836 51.4372 68.0374 50.7272L46.5882 32.7292C45.742 32.0192 44.4805 32.1296 43.7705 32.9757L36.0571 42.1682C35.3471 43.0144 35.4574 44.2759 36.3036 44.9859Z" fill="white"/>
<path opacity="0.15" d="M21.2027 42.7582L20.5599 43.5242C20.2064 43.9455 20.2082 44.5345 20.5683 44.8366L40.6003 61.6455C44.6695 64.9947 50.3386 69.2686 54.2659 71.8069C59.0286 74.8895 64.744 77.9882 68.7142 79.5574C63.2119 76.7026 65.096 75.3595 63.7112 74.4586C62.3404 73.5564 61.256 75.0354 59.8828 74.105C58.5083 73.1605 59.6337 71.6638 58.3195 70.6785C57.0118 69.6856 55.8132 71.2385 54.4644 70.2634C53.1157 69.2883 54.4067 67.6564 53.1504 66.6022C51.8941 65.548 50.4836 67.2756 49.1606 66.2698C47.844 65.2564 49.3931 63.4103 48.1818 62.3025C46.9769 61.187 45.2955 63.1441 44.0098 62.0783C42.7381 61.0113 44.553 58.9573 43.3738 57.8112C42.2011 56.6575 40.2784 58.7777 39.0506 57.6429C37.8432 56.4993 39.8556 54.35 38.6957 53.1809C37.5499 52.0106 35.4799 54.1507 34.3304 52.9382C33.1938 51.7103 34.9339 49.0453 33.6776 47.9911C32.1914 46.7441 30.3863 50.4511 28.0882 48.5227L21.1938 42.7376L21.2027 42.7582Z" fill="white"/>
<path opacity="0.15" d="M41.7719 18.2448L42.4147 17.4787C42.7682 17.0574 43.3486 16.9569 43.7086 17.2591L63.7407 34.068C67.7456 37.4938 72.939 42.3346 76.1207 45.7614C79.9835 49.9165 84.0276 55.0069 86.2623 58.6444C82.4955 53.7214 81.5 55.8101 80.3722 54.6027C79.2457 53.4094 80.5139 52.0847 79.3592 50.8939C78.1905 49.7043 76.9118 51.0725 75.7134 49.9494C74.5085 48.8339 75.8296 47.3839 74.6351 46.225C73.4406 45.066 72.0577 46.6208 70.8014 45.5666C69.5451 44.5125 71.0014 42.8235 69.7812 41.6952C68.5546 40.5745 67.0055 42.4207 65.7042 41.4201C64.3964 40.4273 66.0318 38.4316 64.759 37.3505C63.4873 36.2834 61.7797 38.4274 60.4463 37.4651C59.1064 36.5106 60.8605 34.249 59.5298 33.2368C58.1939 32.2464 56.4267 34.6014 55.0739 33.6621C53.7224 32.7369 55.4706 30.3268 54.0769 29.4053C52.6703 28.4992 50.3479 30.6756 49.0916 29.6214C47.6055 28.3744 50.9427 25.953 48.6446 24.0247L41.7502 18.2396L41.7719 18.2448Z" fill="black"/>
<path opacity="0.15" fill-rule="evenodd" clip-rule="evenodd" d="M83.1089 73.7129C81.5919 75.5208 79.031 75.9436 77.0053 74.8573C77.0129 74.8638 77.0142 74.8779 77.0154 74.8919C77.0307 74.9048 77.046 74.9177 77.0549 74.9382C77.2373 75.1565 77.4478 75.3723 77.6776 75.5651C79.7842 77.3328 82.899 77.0745 84.641 74.9985C86.3829 72.9225 86.0964 69.8102 83.9898 68.0426C83.7753 67.8626 83.5415 67.7056 83.3026 67.5703C83.2949 67.5639 83.2872 67.5575 83.2796 67.551C83.2643 67.5382 83.2297 67.5483 83.2079 67.5431C84.6012 69.3519 84.6271 71.9191 83.1165 73.7193L83.1089 73.7129Z" fill="black"/>
<path opacity="0.05" fill-rule="evenodd" clip-rule="evenodd" d="M3.33718 25.1563L22.4883 41.226L20.5599 43.5241C20.2064 43.9454 20.2619 44.5794 20.6832 44.9329L39.0683 60.3599C59.926 77.6005 79.8377 88.0032 88.1618 78.083C96.4859 68.1627 82.8156 50.3216 62.2086 32.7823L43.8235 17.3553C43.4022 17.0018 42.7682 17.0573 42.4147 17.4786L40.4863 19.7767L21.3352 3.70705C20.9139 3.35351 20.2799 3.40898 19.9264 3.8303L3.21393 23.7475C2.86039 24.1688 2.91586 24.8028 3.33718 25.1563Z" fill="url(#paint0_linear_91_287)"/>
</g>
<defs>
<linearGradient id="paint0_linear_91_287" x1="38.3022" y1="59.7171" x2="61.4747" y2="32.1012" gradientUnits="userSpaceOnUse">
<stop stop-color="white"/>
<stop offset="0.5"/>
</linearGradient>
</defs>
</svg>
