<svg width="71" height="70" viewBox="0 0 71 70" fill="none" xmlns="http://www.w3.org/2000/svg">
<path d="M70.5 35C70.5 54.33 54.83 70 35.5 70C16.17 70 0.5 54.33 0.5 35C0.5 15.67 16.17 0 35.5 0C54.83 0 70.5 15.67 70.5 35Z" fill="#007788"/>
<path fill-rule="evenodd" clip-rule="evenodd" d="M53.29 22.81C53.8367 23.3568 53.8367 24.2432 53.29 24.7899L30.19 47.8899C29.6432 48.4367 28.7568 48.4367 28.21 47.8899L17.7101 37.3899C17.1633 36.8432 17.1633 35.9568 17.7101 35.41C18.2568 34.8633 19.1432 34.8633 19.6899 35.41L29.2 44.9201L51.31 22.81C51.8568 22.2633 52.7432 22.2633 53.29 22.81Z" fill="white"/>
</svg>
