<svg width="158" height="174" viewBox="0 0 158 174" fill="none" xmlns="http://www.w3.org/2000/svg">
<g opacity="0.6">
<g clip-path="url(#clip0_280_6412)">
<mask id="mask0_280_6412" style="mask-type:luminance" maskUnits="userSpaceOnUse" x="2" y="2" width="153" height="153">
<path d="M153.188 91.9129L65.1051 3.8297C62.99 1.71462 59.5608 1.71462 57.4457 3.8297L3.82984 57.4455C1.71476 59.5606 1.71476 62.9899 3.82985 65.105L91.913 153.188C94.0281 155.303 97.4573 155.303 99.5724 153.188L153.188 99.5723C155.303 97.4572 155.303 94.0279 153.188 91.9129Z" fill="white"/>
</mask>
<g mask="url(#mask0_280_6412)">
<path d="M153.188 91.9129L65.1053 3.8297C62.9903 1.71462 59.561 1.71462 57.4459 3.8297L3.83009 57.4455C1.715 59.5606 1.715 62.9899 3.83009 65.105L91.9133 153.188C94.0283 155.303 97.4576 155.303 99.5727 153.188L153.188 99.5723C155.304 97.4572 155.304 94.0279 153.188 91.9129Z" fill="#61676B"/>
<path opacity="0.05" d="M153.188 91.9129L65.1053 3.8297C62.9903 1.71462 59.561 1.71462 57.4459 3.8297L3.83009 57.4455C1.715 59.5606 1.715 62.9899 3.83009 65.105L91.9133 153.188C94.0283 155.303 97.4576 155.303 99.5727 153.188L153.188 99.5723C155.304 97.4572 155.304 94.0279 153.188 91.9129Z" fill="url(#paint0_linear_280_6412)"/>
<path opacity="0.1" d="M71.8076 46.9126L51.7017 26.8066L35.4254 43.0829L55.5314 63.1888L71.8076 46.9126Z" fill="black"/>
<path d="M69.8927 46.9118L67.0205 49.7841L61.2759 44.0395L53.6165 51.6989L46.9145 44.9969L53.6165 38.295L56.4888 41.1672L60.3185 37.3375L69.8927 46.9118ZM58.4036 48.8266L63.1908 53.6138L66.063 50.7415L61.2759 45.9544L58.4036 48.8266ZM54.5739 52.6563L59.3611 57.4435L62.2333 54.5712L57.4462 49.7841L54.5739 52.6563ZM52.6591 37.3375L47.872 32.5504L44.9997 35.4227L49.7868 40.2098L52.6591 37.3375ZM48.8294 41.1672L44.0423 36.3801L41.17 39.2524L45.9571 44.0395L48.8294 41.1672ZM37.3403 43.0821L45.9571 51.6989L48.8294 48.8266L40.2126 40.2098L37.3403 43.0821ZM46.9145 52.6563L55.5314 61.2732L58.4036 58.4009L49.7868 49.7841L46.9145 52.6563ZM59.3611 36.3801L51.7017 28.7207L48.8294 31.593L56.4888 39.2524L59.3611 36.3801Z" fill="white"/>
<path opacity="0.5" d="M105.911 75.2722L107.357 76.7179C107.529 76.0668 107.855 75.4541 108.362 74.9466L114.844 68.4649C115.323 67.9862 116.146 68.2351 116.28 68.9053L117.18 73.635C117.228 73.9126 117.142 74.1903 116.941 74.3913L115.648 75.6839L114.786 71.184L109.712 76.2583C108.927 77.0434 108.927 78.3072 109.712 79.0923L114.279 83.6592C114.605 83.9847 115.141 83.9847 115.466 83.6592L123.863 75.2626C124.188 74.9371 124.188 74.4009 123.863 74.0754L122.417 72.6297C122.245 73.2807 121.919 73.8935 121.412 74.4009L114.93 80.8827C114.451 81.3614 113.628 81.1125 113.494 80.4423L112.594 75.7126C112.546 75.4349 112.632 75.1573 112.833 74.9562L114.126 73.6637L114.988 78.1636L120.091 73.0605C120.857 72.2946 120.857 71.0499 120.091 70.284L115.495 65.6883C115.16 65.3532 114.633 65.3628 114.308 65.6883L105.93 74.0658C105.595 74.4009 105.605 74.9275 105.93 75.253L105.911 75.2722Z" fill="white"/>
<path opacity="0.5" d="M132.566 83.1227C132.566 83.544 132.24 83.8887 131.819 83.927C129.904 84.0802 128.018 84.894 126.553 86.3588C125.089 87.8237 124.284 89.7002 124.122 91.6247C124.083 92.0459 123.739 92.3715 123.317 92.3715C122.858 92.3715 122.475 91.9693 122.513 91.5098C122.695 89.2215 123.662 86.9716 125.414 85.2195C127.166 83.4674 129.416 82.5004 131.704 82.3185C132.164 82.2802 132.566 82.6632 132.566 83.1227ZM131.666 85.5546C130.211 85.7269 128.813 86.378 127.693 87.4982C126.573 88.6184 125.941 90.0162 125.749 91.4715C125.692 91.9502 126.065 92.381 126.544 92.381C126.946 92.381 127.291 92.0938 127.338 91.7013C127.463 90.5811 127.961 89.4896 128.813 88.6375C129.665 87.7854 130.756 87.2875 131.877 87.1631C132.269 87.1152 132.556 86.7705 132.556 86.3684C132.556 85.8897 132.135 85.5067 131.647 85.5737L131.666 85.5546ZM131.618 88.8194C131.005 88.9726 130.431 89.279 129.952 89.7577C129.474 90.2364 129.167 90.8109 129.014 91.4236C128.899 91.9023 129.253 92.3715 129.751 92.3715L129.847 92.3715C130.211 92.3715 130.498 92.1225 130.584 91.7683C130.67 91.4523 130.843 91.146 131.101 90.8875C131.36 90.629 131.656 90.4662 131.982 90.3705C132.327 90.2747 132.576 89.9875 132.585 89.6332L132.585 89.5375C132.585 89.0396 132.116 88.6854 131.637 88.8003L131.618 88.8194ZM132.221 92.0268C131.752 92.4959 131.752 93.2619 132.221 93.731C132.69 94.2002 133.456 94.2001 133.926 93.731C134.395 93.2619 134.395 92.4959 133.926 92.0268C133.456 91.5577 132.69 91.5577 132.221 92.0268ZM143.634 94.248C143.452 96.5363 142.485 98.7862 140.733 100.538C138.981 102.29 136.731 103.257 134.443 103.439C133.983 103.478 133.581 103.095 133.581 102.635C133.581 102.214 133.906 101.869 134.328 101.831C136.243 101.678 138.129 100.864 139.594 99.399C141.058 97.9341 141.863 96.0576 142.025 94.1331C142.064 93.7119 142.408 93.3863 142.83 93.3863C143.289 93.3863 143.672 93.7885 143.634 94.248ZM139.613 93.3863C139.211 93.3863 138.866 93.6736 138.818 94.0661C138.694 95.1863 138.196 96.2778 137.344 97.1299C136.482 97.9916 135.4 98.4798 134.28 98.6043C133.887 98.6522 133.6 98.9969 133.6 99.399C133.6 99.8777 134.021 100.261 134.51 100.194C135.965 100.021 137.363 99.3702 138.483 98.2501C139.603 97.1299 140.235 95.732 140.426 94.2767C140.484 93.798 140.111 93.3672 139.632 93.3672L139.613 93.3863ZM136.415 93.3863L136.319 93.3863C135.955 93.3863 135.668 93.6353 135.582 93.9895C135.496 94.3055 135.323 94.6118 135.065 94.8704C134.816 95.1193 134.51 95.2916 134.184 95.3874C133.839 95.4831 133.59 95.7703 133.581 96.1246L133.581 96.2203C133.581 96.7182 134.05 97.0724 134.529 96.9575C135.141 96.8043 135.716 96.498 136.195 96.0193C136.673 95.5405 136.98 94.9661 137.133 94.3533C137.248 93.8746 136.894 93.4055 136.396 93.4055L136.415 93.3863Z" fill="white"/>
</g>
</g>
<g clip-path="url(#clip1_280_6412)">
<mask id="mask1_280_6412" style="mask-type:luminance" maskUnits="userSpaceOnUse" x="17" y="81" width="83" height="84">
<path fill-rule="evenodd" clip-rule="evenodd" d="M80.1129 82.0273L62.6398 99.5003L60.5431 97.4036C60.1587 97.0192 59.5296 97.0192 59.1452 97.4036L42.3711 114.178C23.5981 133.23 11.6396 151.94 20.6906 160.991C29.7416 170.042 48.4867 158.119 67.5323 139.339L84.3064 122.565C84.6908 122.18 84.6908 121.551 84.3064 121.167L82.2096 119.07L99.6826 101.597C100.067 101.213 100.067 100.584 99.6826 100.199L81.5107 82.0273C81.1263 81.6429 80.4973 81.6429 80.1129 82.0273ZM31.2653 150.99C31.3492 152.541 31.8104 154.079 32.6422 155.442C32.6422 155.442 32.6422 155.442 32.6492 155.449C32.719 155.561 32.7121 155.694 32.6492 155.798C32.6422 155.805 32.6352 155.812 32.6282 155.819C32.4744 156.043 32.2997 156.26 32.104 156.455C30.182 158.377 27.0927 158.391 25.1987 156.497C23.3046 154.603 23.3186 151.514 25.2406 149.592C25.4503 149.382 25.6739 149.201 25.9116 149.033C25.9255 149.019 25.9395 149.005 25.9605 148.998C26.0583 148.942 26.1702 148.942 26.268 148.984C26.282 148.998 26.296 149.012 26.3099 149.012C27.6029 149.76 29.0357 150.172 30.4965 150.263C30.5594 150.256 30.8739 150.291 31.0486 150.466C31.2234 150.64 31.2513 150.948 31.2513 150.976L31.2653 150.99Z" fill="white"/>
</mask>
<g mask="url(#mask1_280_6412)">
<path d="M62.6392 99.5L80.1122 82.027C80.4966 81.6426 81.1256 81.6426 81.51 82.027L99.682 100.199C100.066 100.583 100.066 101.212 99.682 101.597L82.2089 119.07L62.6392 99.5Z" fill="white"/>
<path fill-rule="evenodd" clip-rule="evenodd" d="M79.4133 95.3066C79.7977 95.691 79.7977 96.3201 79.4133 96.7045L77.3165 98.8012C76.9321 99.1857 76.3031 99.1857 75.9187 98.8012L73.123 96.0056C72.7386 95.6212 72.7386 94.9921 73.123 94.6077L75.2198 92.511C75.6042 92.1266 76.2332 92.1266 76.6176 92.511L79.4133 95.3066ZM86.4025 102.296C86.0181 101.911 85.3891 101.911 85.0046 102.296L82.9079 104.393C82.5235 104.777 82.5235 105.406 82.9079 105.79L85.7036 108.586C86.088 108.971 86.717 108.971 87.1014 108.586L89.1982 106.489C89.5826 106.105 89.5826 105.476 89.1982 105.092L86.4025 102.296Z" fill="#E6E6E6"/>
<path d="M73.822 96.7031L77.3166 93.2085M75.2199 98.101L78.7145 94.6064M83.6069 106.488L87.1015 102.993M85.0048 107.886L88.4994 104.391" stroke="#C6C6C6" stroke-width="0.988423" stroke-miterlimit="10"/>
<path d="M71.0261 107.888L71.725 107.189C72.1095 106.804 72.7385 106.804 73.1229 107.189L74.5207 108.587C74.9051 108.971 74.9051 109.6 74.5207 109.984L73.8218 110.683L71.0261 107.888Z" fill="#E6E6E6"/>
<path fill-rule="evenodd" clip-rule="evenodd" d="M42.3709 114.178C23.5979 133.23 11.6394 151.94 20.6904 160.991C29.7414 170.042 48.4865 158.119 67.532 139.339L84.3061 122.565C84.6906 122.18 84.6905 121.551 84.3061 121.167L60.5428 97.4036C60.1584 97.0192 59.5294 97.0192 59.145 97.4036L42.3709 114.178Z" fill="#5B5D5F"/>
<path opacity="0.15" fill-rule="evenodd" clip-rule="evenodd" d="M34.864 139.198C33.9344 138.701 33.0258 138.492 32.3269 139.191C32.2989 139.219 32.278 139.24 32.257 139.275C32.257 139.275 26.1135 146.411 24.1495 150.094C22.7866 152.645 23.1151 155.07 24.8764 156.831C26.7984 158.753 29.2376 158.942 31.7608 157.523C35.9333 155.182 42.3843 149.5 42.5032 149.395C43.2021 148.696 43.0134 147.934 42.4962 146.858C42.4752 146.809 41.5387 145.02 39.1693 142.65C37.1634 140.644 34.8919 139.24 34.85 139.212L34.864 139.198Z" fill="white"/>
<path opacity="0.75" fill-rule="evenodd" clip-rule="evenodd" d="M58.4457 112.08L56.7613 113.764C57.5162 113.96 58.2291 114.351 58.8162 114.938L66.3925 122.515C66.9516 123.074 66.658 124.038 65.8822 124.185L60.3538 125.24C60.0323 125.296 59.6968 125.198 59.4661 124.968L57.9635 123.465L63.2263 122.452L57.2645 116.49C56.3699 115.595 54.9232 115.602 54.0355 116.49L48.6608 121.865C48.2764 122.249 48.2764 122.878 48.6608 123.262L58.4457 133.047C58.8301 133.432 59.4592 133.432 59.8436 133.047L61.528 131.363C60.7731 131.167 60.0602 130.776 59.4731 130.189L51.8968 122.612C51.3377 122.053 51.6312 121.089 52.4071 120.942L57.9285 119.88C58.25 119.824 58.5855 119.922 58.8162 120.152L60.3258 121.662L55.0629 122.675L60.9898 128.602C61.9054 129.518 63.3871 129.518 64.3027 128.602L69.6354 123.269C70.0199 122.885 70.0199 122.256 69.6354 121.872L59.8506 112.087C59.4662 111.702 58.8371 111.702 58.4527 112.087L58.4457 112.08Z" fill="white"/>
<path opacity="0.15" d="M58.4456 133.048L48.6607 123.263C48.2763 122.879 48.2763 122.25 48.6607 121.865L38.1769 132.349C37.4081 133.118 37.4081 134.376 38.1769 135.145L46.5639 143.532C47.3328 144.301 48.5908 144.301 49.3596 143.532L59.8434 133.048C59.459 133.433 58.83 133.433 58.4456 133.048Z" fill="white"/>
<path opacity="0.15" d="M83.6066 120.467L84.3055 121.166C84.6899 121.551 84.7389 122.131 84.4104 122.459L66.1336 140.736C62.4153 144.384 57.2014 149.081 53.553 151.919C49.1288 155.364 43.7681 158.908 39.9939 160.795C45.166 157.51 43.195 156.35 44.481 155.343C45.7531 154.337 46.9482 155.7 48.2202 154.665C49.4923 153.617 48.2552 152.24 49.4643 151.157C50.6665 150.067 51.9804 151.492 53.2245 150.416C54.4686 149.34 53.0568 147.844 54.203 146.698C55.3492 145.552 56.8869 147.131 58.103 146.027C59.3121 144.915 57.6277 143.231 58.725 142.036C59.8153 140.834 61.6395 142.616 62.8137 141.456C63.9739 140.296 62.01 138.43 63.0723 137.199C64.1277 135.962 66.2035 137.884 67.3148 136.661C68.4051 135.431 66.2384 133.488 67.2798 132.237C68.3072 130.986 70.5298 132.915 71.5572 131.622C72.5706 130.315 70.6276 127.841 71.7739 126.695C73.1298 125.339 75.2265 128.833 77.3233 126.737L83.6136 120.446L83.6066 120.467Z" fill="#161616"/>
<path opacity="0.15" fill-rule="evenodd" clip-rule="evenodd" d="M25.1977 156.509C23.5483 154.86 23.3526 152.302 24.5966 150.401C24.5896 150.408 24.5757 150.408 24.5617 150.408C24.5477 150.422 24.5337 150.436 24.5128 150.443C24.2821 150.604 24.0515 150.792 23.8418 151.002C21.9198 152.924 21.9058 156.013 23.7999 157.907C25.6939 159.801 28.7832 159.787 30.7052 157.865C30.9009 157.67 31.0756 157.453 31.2294 157.229C31.2364 157.222 31.2434 157.215 31.2504 157.208C31.2643 157.194 31.2573 157.159 31.2643 157.138C29.3633 158.355 26.8332 158.159 25.1907 156.516L25.1977 156.509Z" fill="black"/>
<path opacity="0.4" d="M61.2413 98.1015L60.5424 97.4026C60.158 97.0182 59.5779 96.9692 59.2494 97.2977L40.9726 115.574C37.3243 119.293 32.6275 124.507 29.7899 128.155C26.3442 132.579 22.8007 137.94 20.9136 141.714C24.1985 136.542 25.3587 138.513 26.3652 137.227C27.3716 135.955 26.0087 134.76 27.0431 133.488C28.0915 132.216 29.4684 133.453 30.5517 132.244C31.642 131.042 30.2162 129.728 31.2926 128.484C32.3689 127.239 33.8646 128.651 35.0108 127.505C36.1571 126.359 34.5775 124.821 35.6818 123.605C36.7931 122.396 38.4775 124.08 39.6726 122.983C40.8748 121.893 39.0925 120.069 40.2527 118.894C41.4129 117.734 43.2791 119.698 44.5092 118.636C45.7463 117.58 43.8242 115.505 45.0473 114.393C46.2774 113.303 48.2204 115.47 49.4715 114.428C50.7226 113.401 48.7935 111.178 50.0865 110.151C51.3935 109.137 53.8677 111.08 55.0139 109.934C56.3698 108.578 52.8752 106.482 54.972 104.385L61.2623 98.0945L61.2413 98.1015Z" fill="#999999"/>
<path opacity="0.05" fill-rule="evenodd" clip-rule="evenodd" d="M80.1126 82.0273L62.6396 99.5003L60.5428 97.4036C60.1584 97.0192 59.5294 97.0192 59.145 97.4036L42.3709 114.178C23.5979 133.23 11.6394 151.94 20.6904 160.991C29.7414 170.042 48.4865 158.119 67.532 139.339L84.3061 122.565C84.6906 122.18 84.6906 121.551 84.3061 121.167L82.2094 119.07L99.6824 101.597C100.067 101.213 100.067 100.584 99.6824 100.199L81.5105 82.0273C81.1261 81.6429 80.497 81.6429 80.1126 82.0273Z" fill="url(#paint1_linear_280_6412)"/>
</g>
</g>
</g>
<defs>
<linearGradient id="paint0_linear_280_6412" x1="108.936" y1="48.0819" x2="48.0823" y2="108.936" gradientUnits="userSpaceOnUse">
<stop stop-color="white"/>
<stop offset="0.5"/>
</linearGradient>
<linearGradient id="paint1_linear_280_6412" x1="43.0698" y1="113.479" x2="68.2659" y2="138.675" gradientUnits="userSpaceOnUse">
<stop stop-color="white"/>
<stop offset="0.5"/>
</linearGradient>
<clipPath id="clip0_280_6412">
<rect width="135.4" height="86.6563" fill="white" transform="translate(61.2751) rotate(45)"/>
</clipPath>
<clipPath id="clip1_280_6412">
<rect width="98.8423" height="35.5832" fill="white" transform="translate(8.12402 148.425) rotate(-45)"/>
</clipPath>
</defs>
</svg>
