<svg width="158" height="174" viewBox="0 0 158 174" fill="none" xmlns="http://www.w3.org/2000/svg">
<g clip-path="url(#clip0_280_6411)">
<mask id="mask0_280_6411" style="mask-type:luminance" maskUnits="userSpaceOnUse" x="2" y="2" width="154" height="154">
<path d="M153.44 92.0671L65.212 3.83894C63.0934 1.72037 59.6585 1.72037 57.54 3.83894L3.8359 57.543C1.71733 59.6616 1.71733 63.0965 3.83589 65.215L92.064 153.443C94.1826 155.562 97.6175 155.562 99.736 153.443L153.44 99.7391C155.559 97.6205 155.559 94.1856 153.44 92.0671Z" fill="white"/>
</mask>
<g mask="url(#mask0_280_6411)">
<path d="M153.44 92.0671L65.2122 3.83894C63.0937 1.72037 59.6588 1.72037 57.5402 3.83894L3.83614 57.543C1.71757 59.6616 1.71757 63.0965 3.83614 65.215L92.0643 153.443C94.1828 155.562 97.6177 155.562 99.7363 153.443L153.44 99.7391C155.559 97.6205 155.559 94.1856 153.44 92.0671Z" fill="#E1E1E1"/>
<path opacity="0.05" d="M153.44 92.0671L65.2122 3.83894C63.0937 1.72037 59.6588 1.72037 57.5402 3.83894L3.83614 57.543C1.71757 59.6616 1.71757 63.0965 3.83614 65.215L92.0643 153.443C94.1828 155.562 97.6177 155.562 99.7363 153.443L153.44 99.7391C155.559 97.6205 155.559 94.1856 153.44 92.0671Z" fill="url(#paint0_linear_280_6411)"/>
<path opacity="0.1" d="M71.9252 46.9935L51.7861 26.8545L35.4831 43.1575L55.6221 63.2965L71.9252 46.9935Z" fill="black"/>
<path d="M70.0072 46.9935L67.1302 49.8705L61.3761 44.1165L53.7041 51.7885L46.9911 45.0755L53.7041 38.3625L56.5811 41.2395L60.4171 37.4035L70.0072 46.9935ZM58.4991 48.9115L63.2941 53.7065L66.1712 50.8295L61.3761 46.0345L58.4991 48.9115ZM54.6631 52.7475L59.4581 57.5425L62.3351 54.6655L57.5401 49.8705L54.6631 52.7475ZM52.7451 37.4035L47.9501 32.6085L45.0731 35.4855L49.8681 40.2805L52.7451 37.4035ZM48.9091 41.2395L44.1141 36.4445L41.2371 39.3215L46.0321 44.1165L48.9091 41.2395ZM37.4011 43.1575L46.0321 51.7885L48.9091 48.9115L40.2781 40.2805L37.4011 43.1575ZM46.9911 52.7475L55.6221 61.3785L58.4991 58.5015L49.8681 49.8705L46.9911 52.7475ZM59.4581 36.4445L51.7861 28.7725L48.9091 31.6495L56.5811 39.3215L59.4581 36.4445Z" fill="white"/>
<path opacity="0.5" d="M106.085 75.4002L107.533 76.8483C107.706 76.1962 108.032 75.5824 108.54 75.0742L115.032 68.5817C115.512 68.1022 116.337 68.3516 116.471 69.0229L117.372 73.7603C117.42 74.0385 117.334 74.3166 117.133 74.518L115.838 75.8126L114.975 71.3053L109.892 76.388C109.106 77.1744 109.106 78.4403 109.892 79.2267L114.466 83.8011C114.793 84.1272 115.33 84.1271 115.656 83.8011L124.066 75.3906C124.392 75.0646 124.392 74.5275 124.066 74.2015L122.618 72.7534C122.445 73.4055 122.119 74.0193 121.611 74.5275L115.119 81.02C114.639 81.4995 113.814 81.2501 113.68 80.5788L112.779 75.8414C112.731 75.5633 112.817 75.2852 113.018 75.0838L114.313 73.7891L115.176 78.2964L120.288 73.1849C121.055 72.4177 121.055 71.171 120.288 70.4038L115.684 65.8006C115.349 65.465 114.821 65.4746 114.495 65.8006L106.104 74.1919C105.768 74.5275 105.778 75.055 106.104 75.3811L106.085 75.4002Z" fill="white"/>
<path opacity="0.5" d="M132.784 83.2649C132.784 83.6868 132.458 84.0321 132.036 84.0704C130.118 84.2239 128.229 85.039 126.761 86.5063C125.294 87.9736 124.488 89.8532 124.325 91.7808C124.287 92.2028 123.942 92.5288 123.52 92.5288C123.059 92.5288 122.676 92.126 122.714 91.6657C122.896 89.3737 123.865 87.12 125.62 85.3651C127.375 83.6101 129.629 82.6415 131.921 82.4593C132.381 82.4209 132.784 82.8045 132.784 83.2649ZM131.882 85.7007C130.425 85.8733 129.024 86.5255 127.902 87.6475C126.78 88.7695 126.147 90.1697 125.956 91.6274C125.898 92.1069 126.272 92.5384 126.752 92.5384C127.154 92.5384 127.5 92.2507 127.548 91.8575C127.672 90.7355 128.171 89.6422 129.024 88.7887C129.878 87.9352 130.971 87.4365 132.093 87.3118C132.486 87.2639 132.774 86.9187 132.774 86.5159C132.774 86.0364 132.352 85.6528 131.863 85.7199L131.882 85.7007ZM131.834 88.9709C131.221 89.1244 130.645 89.4312 130.166 89.9107C129.686 90.3902 129.379 90.9656 129.226 91.5794C129.111 92.0589 129.466 92.5288 129.964 92.5288L130.06 92.5288C130.425 92.5288 130.712 92.2795 130.799 91.9246C130.885 91.6082 131.058 91.3013 131.317 91.0424C131.575 90.7834 131.873 90.6204 132.199 90.5245C132.544 90.4286 132.793 90.1409 132.803 89.7861L132.803 89.6902C132.803 89.1915 132.333 88.8367 131.854 88.9517L131.834 88.9709ZM132.439 92.1836C131.969 92.6535 131.969 93.4207 132.439 93.8906C132.908 94.3605 133.676 94.3605 134.146 93.8906C134.615 93.4207 134.615 92.6535 134.146 92.1836C133.676 91.7137 132.908 91.7137 132.439 92.1836ZM143.87 94.4085C143.688 96.7005 142.719 98.9541 140.964 100.709C139.209 102.464 136.955 103.433 134.663 103.615C134.203 103.653 133.8 103.27 133.8 102.809C133.8 102.387 134.126 102.042 134.548 102.004C136.466 101.85 138.356 101.035 139.823 99.5679C141.29 98.1006 142.096 96.221 142.259 94.2934C142.297 93.8714 142.642 93.5454 143.064 93.5454C143.525 93.5454 143.908 93.9481 143.87 94.4085ZM139.842 93.5454C139.439 93.5454 139.094 93.8331 139.046 94.2262C138.921 95.3483 138.423 96.4415 137.569 97.295C136.706 98.1582 135.622 98.6472 134.5 98.7719C134.107 98.8199 133.819 99.1651 133.819 99.5679C133.819 100.047 134.241 100.431 134.731 100.364C136.188 100.191 137.588 99.5391 138.71 98.4171C139.832 97.295 140.465 95.8949 140.657 94.4372C140.715 93.9577 140.341 93.5262 139.861 93.5262L139.842 93.5454ZM136.639 93.5454L136.543 93.5454C136.179 93.5454 135.891 93.7947 135.805 94.1495C135.718 94.466 135.546 94.7729 135.287 95.0318C135.037 95.2812 134.731 95.4538 134.404 95.5497C134.059 95.6456 133.81 95.9333 133.8 96.2881L133.8 96.384C133.8 96.8827 134.27 97.2375 134.75 97.1224C135.363 96.969 135.939 96.6621 136.418 96.1826C136.898 95.7031 137.205 95.1277 137.358 94.5139C137.473 94.0344 137.118 93.5645 136.62 93.5645L136.639 93.5454Z" fill="white"/>
</g>
</g>
<g clip-path="url(#clip1_280_6411)">
<mask id="mask1_280_6411" style="mask-type:luminance" maskUnits="userSpaceOnUse" x="17" y="81" width="84" height="84">
<path fill-rule="evenodd" clip-rule="evenodd" d="M80.245 82.1632L62.7432 99.665L60.643 97.5647C60.258 97.1797 59.6279 97.1797 59.2429 97.5647L42.4412 114.366C23.6373 133.45 11.6591 152.191 20.725 161.257C29.7909 170.323 48.5668 158.38 67.6437 139.569L84.4454 122.767C84.8305 122.382 84.8305 121.752 84.4454 121.367L82.3452 119.267L99.847 101.765C100.232 101.38 100.232 100.75 99.847 100.365L81.6451 82.1632C81.2601 81.7781 80.63 81.7781 80.245 82.1632ZM31.317 151.239C31.4011 152.793 31.8631 154.333 32.6962 155.699C32.6962 155.699 32.6962 155.699 32.7032 155.706C32.7732 155.818 32.7662 155.951 32.7032 156.056C32.6962 156.063 32.6892 156.07 32.6822 156.077C32.5282 156.301 32.3531 156.518 32.1571 156.714C30.2319 158.639 27.1376 158.653 25.2404 156.756C23.3432 154.859 23.3572 151.764 25.2824 149.839C25.4925 149.629 25.7165 149.447 25.9545 149.279C25.9685 149.265 25.9825 149.251 26.0035 149.244C26.1015 149.188 26.2135 149.188 26.3115 149.23C26.3255 149.244 26.3395 149.258 26.3535 149.258C27.6487 150.007 29.0838 150.42 30.547 150.511C30.61 150.504 30.925 150.539 31.1 150.714C31.275 150.889 31.303 151.197 31.303 151.225L31.317 151.239Z" fill="white"/>
</mask>
<g mask="url(#mask1_280_6411)">
<path d="M62.7429 99.6641L80.2447 82.1623C80.6297 81.7772 81.2598 81.7772 81.6448 82.1623L99.8467 100.364C100.232 100.749 100.232 101.379 99.8467 101.764L82.3449 119.266L62.7429 99.6641Z" fill="white"/>
<path fill-rule="evenodd" clip-rule="evenodd" d="M79.5454 95.4629C79.9304 95.8479 79.9304 96.478 79.5454 96.863L77.4452 98.9632C77.0601 99.3483 76.4301 99.3483 76.045 98.9632L73.2447 96.163C72.8597 95.7779 72.8597 95.1479 73.2447 94.7628L75.345 92.6626C75.73 92.2776 76.3601 92.2776 76.7451 92.6626L79.5454 95.4629ZM86.5461 102.464C86.1611 102.079 85.531 102.079 85.146 102.464L83.0457 104.564C82.6607 104.949 82.6607 105.579 83.0457 105.964L85.846 108.764C86.2311 109.149 86.8611 109.149 87.2462 108.764L89.3464 106.664C89.7314 106.279 89.7314 105.649 89.3464 105.264L86.5461 102.464Z" fill="#E6E6E6"/>
<path d="M73.9446 96.8633L77.4449 93.3629M75.3447 98.2634L78.8451 94.7631M83.7456 106.664L87.2459 103.164M85.1457 108.064L88.6461 104.564" stroke="#C6C6C6" stroke-width="0.99005" stroke-miterlimit="10"/>
<path d="M71.144 108.064L71.8441 107.364C72.2292 106.979 72.8592 106.979 73.2443 107.364L74.6444 108.765C75.0294 109.15 75.0294 109.78 74.6444 110.165L73.9443 110.865L71.144 108.064Z" fill="#E6E6E6"/>
<path fill-rule="evenodd" clip-rule="evenodd" d="M42.4412 114.364C23.6373 133.448 11.6591 152.189 20.725 161.255C29.7909 170.321 48.5668 158.378 67.6437 139.567L84.4454 122.765C84.8305 122.38 84.8305 121.75 84.4454 121.365L60.643 97.5628C60.258 97.1777 59.6279 97.1777 59.2429 97.5628L42.4412 114.364Z" fill="#DDDDDD"/>
<path opacity="0.15" fill-rule="evenodd" clip-rule="evenodd" d="M34.9222 139.426C33.9911 138.929 33.081 138.719 32.381 139.419C32.353 139.447 32.332 139.468 32.311 139.503C32.311 139.503 26.1573 146.651 24.1901 150.34C22.825 152.895 23.154 155.325 24.9182 157.089C26.8434 159.014 29.2867 159.203 31.8139 157.782C35.9933 155.437 42.455 149.745 42.574 149.64C43.2741 148.94 43.0851 148.177 42.567 147.099C42.546 147.05 41.6079 145.258 39.2347 142.884C37.2255 140.875 34.9502 139.468 34.9082 139.44L34.9222 139.426Z" fill="white"/>
<path opacity="0.75" fill-rule="evenodd" clip-rule="evenodd" d="M58.5431 112.264L56.8559 113.951C57.612 114.147 58.326 114.539 58.9141 115.127L66.5029 122.716C67.0629 123.276 66.7689 124.242 65.9918 124.389L60.4543 125.446C60.1322 125.502 59.7962 125.404 59.5652 125.173L58.06 123.668L63.3315 122.653L57.3599 116.681C56.4638 115.785 55.0147 115.792 54.1256 116.681L48.7421 122.065C48.357 122.45 48.357 123.08 48.7421 123.465L58.5431 133.266C58.9281 133.651 59.5582 133.651 59.9432 133.266L61.6304 131.579C60.8743 131.383 60.1602 130.99 59.5722 130.402L51.9834 122.814C51.4233 122.254 51.7174 121.287 52.4944 121.14L58.025 120.076C58.347 120.02 58.6831 120.118 58.9141 120.349L60.4262 121.862L55.1547 122.877L61.0913 128.813C62.0084 129.73 63.4926 129.73 64.4097 128.813L69.7512 123.472C70.1362 123.087 70.1362 122.457 69.7512 122.072L59.9502 112.271C59.5652 111.886 58.9351 111.886 58.5501 112.271L58.5431 112.264Z" fill="white"/>
<path opacity="0.15" d="M58.5428 133.266L48.7418 123.465C48.3567 123.08 48.3567 122.45 48.7418 122.065L38.2407 132.566C37.4706 133.336 37.4706 134.596 38.2407 135.366L46.6416 143.767C47.4116 144.537 48.6718 144.537 49.4419 143.767L59.9429 133.266C59.5579 133.651 58.9278 133.651 58.5428 133.266Z" fill="white"/>
<path opacity="0.15" d="M83.745 120.665L84.4451 121.365C84.8301 121.75 84.8791 122.331 84.5501 122.66L66.2432 140.967C62.5188 144.621 57.2963 149.325 53.6419 152.168C49.2105 155.619 43.8409 159.168 40.0606 161.059C45.2411 157.768 43.2669 156.606 44.555 155.598C45.8291 154.59 47.0263 155.955 48.3004 154.919C49.5745 153.869 48.3354 152.49 49.5465 151.405C50.7506 150.313 52.0668 151.741 53.3129 150.663C54.559 149.584 53.1449 148.086 54.293 146.938C55.4411 145.79 56.9813 147.372 58.1994 146.266C59.4105 145.153 57.7233 143.466 58.8225 142.269C59.9146 141.065 61.7418 142.85 62.9179 141.688C64.08 140.526 62.1128 138.656 63.1769 137.424C64.234 136.185 66.3132 138.11 67.4263 136.885C68.5184 135.653 66.3482 133.707 67.3913 132.454C68.4204 131.201 70.6467 133.133 71.6758 131.838C72.6909 130.529 70.7447 128.05 71.8928 126.902C73.2509 125.544 75.3511 129.044 77.4513 126.944L83.752 120.644L83.745 120.665Z" fill="#7D7D7D"/>
<path opacity="0.15" fill-rule="evenodd" clip-rule="evenodd" d="M25.2401 156.766C23.5879 155.114 23.3919 152.551 24.638 150.647C24.631 150.654 24.617 150.654 24.603 150.654C24.589 150.668 24.575 150.682 24.554 150.689C24.323 150.85 24.092 151.039 23.8819 151.249C21.9567 153.174 21.9427 156.269 23.8399 158.166C25.7371 160.063 28.8314 160.049 30.7566 158.124C30.9527 157.928 31.1277 157.711 31.2817 157.487C31.2887 157.48 31.2957 157.473 31.3027 157.466C31.3167 157.452 31.3097 157.417 31.3167 157.396C29.4125 158.614 26.8782 158.418 25.2331 156.773L25.2401 156.766Z" fill="black"/>
<path opacity="0.4" d="M61.3427 98.2622L60.6427 97.5622C60.2576 97.1771 59.6766 97.1281 59.3475 97.4572L41.0407 115.764C37.3863 119.488 32.6818 124.711 29.8395 128.365C26.3882 132.797 22.8388 138.166 20.9486 141.947C24.239 136.766 25.4011 138.74 26.4092 137.452C27.4173 136.178 26.0521 134.981 27.0883 133.707C28.1384 132.433 29.5175 133.672 30.6026 132.461C31.6947 131.257 30.2666 129.94 31.3447 128.694C32.4228 127.448 33.9209 128.862 35.0691 127.714C36.2172 126.566 34.635 125.026 35.7411 123.808C36.8542 122.597 38.5414 124.284 39.7385 123.185C40.9427 122.093 39.1575 120.265 40.3196 119.089C41.4817 117.927 43.3509 119.894 44.583 118.83C45.8221 117.773 43.897 115.694 45.1221 114.581C46.3542 113.489 48.3004 115.659 49.5535 114.616C50.8067 113.587 48.8745 111.361 50.1696 110.331C51.4787 109.316 53.957 111.263 55.1051 110.114C56.4632 108.756 52.9629 106.656 55.0631 104.556L61.3637 98.2553L61.3427 98.2622Z" fill="white"/>
<path opacity="0.05" fill-rule="evenodd" clip-rule="evenodd" d="M80.245 82.1612L62.7432 99.663L60.643 97.5628C60.258 97.1778 59.6279 97.1777 59.2429 97.5628L42.4412 114.364C23.6373 133.448 11.6591 152.189 20.725 161.255C29.7909 170.321 48.5668 158.378 67.6437 139.567L84.4454 122.765C84.8305 122.38 84.8305 121.75 84.4454 121.365L82.3452 119.265L99.847 101.763C100.232 101.378 100.232 100.748 99.847 100.363L81.6451 82.1612C81.2601 81.7762 80.63 81.7762 80.245 82.1612Z" fill="url(#paint1_linear_280_6411)"/>
</g>
</g>
<defs>
<linearGradient id="paint0_linear_280_6411" x1="109.115" y1="48.164" x2="48.1612" y2="109.118" gradientUnits="userSpaceOnUse">
<stop stop-color="white"/>
<stop offset="0.5"/>
</linearGradient>
<linearGradient id="paint1_linear_280_6411" x1="43.1412" y1="113.664" x2="68.3788" y2="138.902" gradientUnits="userSpaceOnUse">
<stop stop-color="white"/>
<stop offset="0.5"/>
</linearGradient>
<clipPath id="clip0_280_6411">
<rect width="135.623" height="86.7989" fill="white" transform="translate(61.3765) rotate(45)"/>
</clipPath>
<clipPath id="clip1_280_6411">
<rect width="99.005" height="35.6418" fill="white" transform="translate(8.1377 148.67) rotate(-45)"/>
</clipPath>
</defs>
</svg>
